<?xml version="1.0" encoding="UTF-8" standalone="no"?>
<!-- Created with Inkscape (http://www.inkscape.org/) -->

<svg
   xmlns:dc="http://purl.org/dc/elements/1.1/"
   xmlns:cc="http://creativecommons.org/ns#"
   xmlns:rdf="http://www.w3.org/1999/02/22-rdf-syntax-ns#"
   xmlns:svg="http://www.w3.org/2000/svg"
   xmlns="http://www.w3.org/2000/svg"
   xmlns:sodipodi="http://sodipodi.sourceforge.net/DTD/sodipodi-0.dtd"
   xmlns:inkscape="http://www.inkscape.org/namespaces/inkscape"
   id="svg2"
   version="1.1"
   inkscape:version="0.91 r13725"
   xml:space="preserve"
   width="833.33398"
   height="833.33398"
   viewBox="0 0 833.33398 833.33398"
   sodipodi:docname="DNA logo.svg"><metadata
     id="metadata8"><rdf:RDF><cc:Work
         rdf:about=""><dc:format>image/svg+xml</dc:format><dc:type
           rdf:resource="http://purl.org/dc/dcmitype/StillImage" /><dc:title></dc:title></cc:Work></rdf:RDF></metadata><defs
     id="defs6"><clipPath
       clipPathUnits="userSpaceOnUse"
       id="clipPath16"><path
         d="m 0,1000 1000,0 L 1000,0 0,0 0,1000 Z"
         id="path18"
         inkscape:connector-curvature="0" /></clipPath></defs><sodipodi:namedview
     pagecolor="#ffffff"
     bordercolor="#666666"
     borderopacity="1"
     objecttolerance="10"
     gridtolerance="10"
     guidetolerance="10"
     inkscape:pageopacity="0"
     inkscape:pageshadow="2"
     inkscape:window-width="1430"
     inkscape:window-height="905"
     id="namedview4"
     showgrid="false"
     inkscape:zoom="0.51832163"
     inkscape:cx="520.88579"
     inkscape:cy="448.09047"
     inkscape:window-x="0"
     inkscape:window-y="0"
     inkscape:window-maximized="0"
     inkscape:current-layer="g10" /><g
     id="g10"
     inkscape:groupmode="layer"
     inkscape:label="DNA_emblem_pink_CMYK"
     transform="matrix(1.25,0,0,-1.25,0,833.334)"><g
       id="g12"
       transform="translate(-166.66655,-166.667)"><g
         id="g14"
         clip-path="url(#clipPath16)"><g
           id="g20"
           transform="translate(678.1995,577.8032)"><path
             d="m 0,0 -0.993,0 c -15.664,0 -28.409,-12.745 -28.409,-28.402 l 0,-43.296 57.811,0 0,43.296 C 28.409,-12.745 15.664,0 0,0"
             style="fill:#ec0382;fill-opacity:1;fill-rule:nonzero;stroke:none"
             id="path22"
             inkscape:connector-curvature="0" /></g><g
           id="g24"
           transform="translate(322.7081,576.2057)"><path
             d="m 0,0 -29.308,0 0,-152.045 29.308,0 c 15.738,0 28.503,12.758 28.503,28.497 l 0,95.045 C 28.503,-12.758 15.738,0 0,0"
             style="fill:#ec0382;fill-opacity:1;fill-rule:nonzero;stroke:none"
             id="path26"
             inkscape:connector-curvature="0" /></g><g
           id="g28"
           transform="translate(748.4855,382.28)"><path
             d="m 0,0 -41.877,0 0,84.361 -57.811,0 0,-84.361 -41.876,0 0,167.121 c 0,38.748 31.531,70.279 70.285,70.279 l 0.994,0 C -31.531,237.4 0,205.869 0,167.121 L 0,0 Z m -178.805,0 -41.877,0 0,165.513 c 0,15.691 -12.717,28.409 -28.408,28.409 l -29.402,0 0,-193.922 -41.877,0 0,235.805 71.279,0 c 38.754,0 70.285,-31.531 70.285,-70.285 l 0,-165.52 z m -247.543,0 -70.609,0 0,235.805 70.603,0 c 39.187,0 70.961,-31.767 70.961,-70.961 l 0.006,-93.883 C -355.387,31.774 -387.154,0 -426.348,0 m -155.471,-215.613 666.667,0 0,666.667 -666.667,0 0,-666.667 z"
             style="fill:#ec0382;fill-opacity:1;fill-rule:nonzero;stroke:none"
             id="path30"
             inkscape:connector-curvature="0" /></g></g></g></g></svg>